<svg id="visual" viewBox="0 0 900 600" width="900" height="600" xmlns="http://www.w3.org/2000/svg" xmlns:xlink="http://www.w3.org/1999/xlink" version="1.1"><path d="M0 404L21.5 409C43 414 86 424 128.8 420.5C171.7 417 214.3 400 257.2 395.7C300 391.3 343 399.7 385.8 408.2C428.7 416.7 471.3 425.3 514.2 421.8C557 418.3 600 402.7 642.8 403C685.7 403.3 728.3 419.7 771.2 414.3C814 409 857 382 878.5 368.5L900 355L900 601L878.5 601C857 601 814 601 771.2 601C728.3 601 685.7 601 642.8 601C600 601 557 601 514.2 601C471.3 601 428.7 601 385.8 601C343 601 300 601 257.2 601C214.3 601 171.7 601 128.8 601C86 601 43 601 21.5 601L0 601Z" fill="#fa7268"></path><path d="M0 428L21.5 431.8C43 435.7 86 443.3 128.8 441.8C171.7 440.3 214.3 429.7 257.2 425.3C300 421 343 423 385.8 432C428.7 441 471.3 457 514.2 456.5C557 456 600 439 642.8 426.3C685.7 413.7 728.3 405.3 771.2 405.3C814 405.3 857 413.7 878.5 417.8L900 422L900 601L878.5 601C857 601 814 601 771.2 601C728.3 601 685.7 601 642.8 601C600 601 557 601 514.2 601C471.3 601 428.7 601 385.8 601C343 601 300 601 257.2 601C214.3 601 171.7 601 128.8 601C86 601 43 601 21.5 601L0 601Z" fill="#ef5f67"></path><path d="M0 463L21.5 465C43 467 86 471 128.8 468.8C171.7 466.7 214.3 458.3 257.2 454.5C300 450.7 343 451.3 385.8 453C428.7 454.7 471.3 457.3 514.2 465.3C557 473.3 600 486.7 642.8 487.2C685.7 487.7 728.3 475.3 771.2 471.7C814 468 857 473 878.5 475.5L900 478L900 601L878.5 601C857 601 814 601 771.2 601C728.3 601 685.7 601 642.8 601C600 601 557 601 514.2 601C471.3 601 428.7 601 385.8 601C343 601 300 601 257.2 601C214.3 601 171.7 601 128.8 601C86 601 43 601 21.5 601L0 601Z" fill="#e34c67"></path><path d="M0 490L21.5 494.7C43 499.3 86 508.7 128.8 515C171.7 521.3 214.3 524.7 257.2 519C300 513.3 343 498.7 385.8 494.2C428.7 489.7 471.3 495.3 514.2 499.5C557 503.7 600 506.3 642.8 511.3C685.7 516.3 728.3 523.7 771.2 524C814 524.3 857 517.7 878.5 514.3L900 511L900 601L878.5 601C857 601 814 601 771.2 601C728.3 601 685.7 601 642.8 601C600 601 557 601 514.2 601C471.3 601 428.7 601 385.8 601C343 601 300 601 257.2 601C214.3 601 171.7 601 128.8 601C86 601 43 601 21.5 601L0 601Z" fill="#d53867"></path><path d="M0 555L21.5 550.7C43 546.3 86 537.7 128.8 533.7C171.7 529.7 214.3 530.3 257.2 535.8C300 541.3 343 551.7 385.8 552.2C428.7 552.7 471.3 543.3 514.2 541C557 538.7 600 543.3 642.8 549C685.7 554.7 728.3 561.3 771.2 565.2C814 569 857 570 878.5 570.5L900 571L900 601L878.5 601C857 601 814 601 771.2 601C728.3 601 685.7 601 642.8 601C600 601 557 601 514.2 601C471.3 601 428.7 601 385.8 601C343 601 300 601 257.2 601C214.3 601 171.7 601 128.8 601C86 601 43 601 21.5 601L0 601Z" fill="#c62368"></path></svg>